<svg width="31" height="20" viewBox="0 0 31 20" fill="none" xmlns="http://www.w3.org/2000/svg">
<rect width="31" height="20" fill="#E5E5E5"/>
<g id="Portfolio Home Page 1">
<rect width="1920" height="5043" transform="translate(-1012 -1763)" fill="white"/>
<g id="Service section">
<g id="Group 28">
<g id="visual">
<g id="Rectangle 10" filter="url(#filter0_d_0_1)">
<rect x="-39" y="-45" width="273" height="251" fill="white"/>
</g>
<g id="Group 16">
<circle id="Ellipse 2" cx="15" cy="12" r="25" fill="#F5FBFC"/>
<g id="Group 24">
<path id="Vector" d="M2 10.1787C2 10.1787 6.90909 2 15.5 2C24.0909 2 29 10.1787 29 10.1787C29 10.1787 24.0909 18.3574 15.5 18.3574C6.90909 18.3574 2 10.1787 2 10.1787Z" stroke="#08546C" stroke-width="3" stroke-linecap="round" stroke-linejoin="round"/>
<path id="Vector_2" d="M15.5002 13.2455C17.5336 13.2455 19.182 11.8723 19.182 10.1785C19.182 8.4846 17.5336 7.11145 15.5002 7.11145C13.4668 7.11145 11.8184 8.4846 11.8184 10.1785C11.8184 11.8723 13.4668 13.2455 15.5002 13.2455Z" stroke="#08546C" stroke-width="3" stroke-linecap="round" stroke-linejoin="round"/>
</g>
</g>
</g>
</g>
</g>
</g>
<defs>
<filter id="filter0_d_0_1" x="-72.4221" y="-45" width="339.844" height="326.2" filterUnits="userSpaceOnUse" color-interpolation-filters="sRGB">
<feFlood flood-opacity="0" result="BackgroundImageFix"/>
<feColorMatrix in="SourceAlpha" type="matrix" values="0 0 0 0 0 0 0 0 0 0 0 0 0 0 0 0 0 0 127 0" result="hardAlpha"/>
<feOffset dy="41.7776"/>
<feGaussianBlur stdDeviation="16.711"/>
<feColorMatrix type="matrix" values="0 0 0 0 0 0 0 0 0 0 0 0 0 0 0 0 0 0 0.0503198 0"/>
<feBlend mode="normal" in2="BackgroundImageFix" result="effect1_dropShadow_0_1"/>
<feBlend mode="normal" in="SourceGraphic" in2="effect1_dropShadow_0_1" result="shape"/>
</filter>
</defs>
</svg>
